<mxfile host="app.diagrams.net" modified="2024-07-14T13:50:54.380Z" agent="Mozilla/5.0 (Windows NT 10.0; Win64; x64) AppleWebKit/537.36 (KHTML, like Gecko) Chrome/126.0.0.0 Safari/537.36" version="24.6.5" etag="wGRTcZ1TOAqdy84B5pe3" type="github">
  <diagram name="Page-1" id="-YpElkYaAKuWAmnfSbVi">
    <mxGraphModel>
      <root>
        <mxCell id="0" />
        <mxCell id="1" parent="0" />
      </root>
    </mxGraphModel>
  </diagram>
</mxfile>
